# AST/ASF file generated using VICON BodyLanguage
# -----------------------------------------------
:version 1.10
:name VICON
:units
  mass 1.0
  length 0.45
  angle deg
:documentation
   .ast/.asf automatically generated from VICON data using
   VICON BodyBuilder and BodyLanguage model FoxedUp or BRILLIANT.MOD
:root
   order TX TY TZ RX RY RZ
   axis XYZ
   position 0 0 0  
   orientation 0 0 0 
:bonedata
  begin
     id 1 
     name lhipjoint
     direction 0.597014 -0.743513 0.301268 
     length 2.48253 
     axis 0 0 0  XYZ
  end
  begin
     id 2 
     name lfemur
     direction 0.34202 -0.939693 0  
     length 7.51389  
     axis 0 0 20  XYZ
    dof rx ry rz
    limits (-160.0 20.0)
           (-70.0 70.0)
           (-60.0 70.0)
  end
  begin
     id 3 
     name ltibia
     direction 0.34202 -0.939693 0   
     length 7.54147   
     axis 0 0 20   XYZ
    dof rx
    limits (-10.0 170.0)
  end
  begin
     id 4 
     name lfoot
     direction 0.10378 -0.285133 0.952853   
     length 2.2132   
     axis -90 7.62852e-016 20   XYZ
    dof rx rz
    limits (-45.0 90.0)
           (-70.0 20.0)
  end
  begin
     id 5 
     name ltoes
     direction 1.5354e-011 -4.2171e-011 1   
     length 1.10362   
     axis -90 7.62852e-016 20   XYZ
    dof rx
    limits (-90.0 20.0)
  end
  begin
     id 6 
     name rhipjoint
     direction -0.591912 -0.747009 0.302685   
     length 2.47092  
     axis 0 0 0  XYZ 
  end
  begin
     id 7 
     name rfemur
     direction -0.34202 -0.939693 0   
     length 7.69991   
     axis 0 0 -20   XYZ
    dof rx ry rz
    limits (-160.0 20.0)
           (-70.0 70.0)
           (-70.0 60.0)
  end
  begin
     id 8 
     name rtibia
     direction -0.34202 -0.939693 0   
     length 7.40774   
     axis 0 0 -20   XYZ
    dof rx
    limits (-10.0 170.0)
 end
 begin
     id 9 
     name rfoot
     direction -0.0916245 -0.251736 0.963449   
     length 2.08235  
     axis -90 -7.62852e-016 -20   XYZ
    dof rx rz
    limits (-45.0 90.0)
           (-20.0 70.0)
  end
  begin
     id 10 
     name rtoes
     direction -1.53527e-011 -4.21878e-011 1   
     length 1.04369   
     axis -90 -7.62852e-016 -20   XYZ
    dof rx
    limits (-90.0 20.0)
  end
  begin
     id 11 
     name lowerback
     direction -0.0122523 0.991496 -0.12956   
     length 2.10814   
     axis 0 0 0   XYZ
    dof rx ry rz
    limits (-20.0 45.0)
           (-30.0 30.0)
           (-30.0 30.0)
  end
  begin
     id 12 
     name upperback
     direction 0.012378 0.999784 -0.0167122   
     length 2.11728   
     axis 0 0 0   XYZ
    dof rx ry rz
    limits (-20.0 45.0)
           (-30.0 30.0)
           (-30.0 30.0)
  end
  begin
     id 13 
     name thorax
     direction 0.0187236 0.998893 0.0431542   
     length 2.15267   
     axis 0 0 0   XYZ
    dof rx ry rz
    limits (-20.0 45.0)
           (-30.0 30.0)
           (-30.0 30.0)
  end
  begin
     id 14 
     name lowerneck
     direction 0.0165467 0.987304 0.157979   
     length 1.72129   
     axis 0 0 0   XYZ
    dof rx ry rz
    limits (-20.0 45.0)
           (-30.0 30.0)
           (-30.0 30.0)
  end
  begin
     id 15 
     name upperneck
     direction -0.0560236 0.986819 -0.151818   
     length 1.75382   
     axis 0 0 0   XYZ
    dof rx ry rz
    limits (-20.0 45.0)
           (-30.0 30.0)
           (-30.0 30.0)
  end
  begin
     id 16
     name head
     direction -0.0173602 0.99745 -0.0692312  
     length 1.76328  
     axis 0 0 0   XYZ
    dof rx ry rz
    limits (-20.0 45.0)
           (-30.0 30.0)
           (-30.0 30.0)
  end
  begin
     id 17 
     name lclavicle
     direction 0.957734 0.271724 -0.094399  
     length 3.5782  
     axis 0 0 0   XYZ
    dof ry rz
    limits (-20.0 10.0)
           (0.0 20.0)
  end
  begin
     id 18 
     name lhumerus
     direction 1 -4.48963e-011 1.21581e-027   
     length 5.25525   
     axis 180 -30 -90   XYZ
    dof rx ry rz
    limits (-60.0 90.0)
           (-90.0 90.0)
           (-90.0 90.0)
  end
  begin
     id 19
     name lradius
     direction 1 -4.48975e-011 3.71216e-028   
     length 3.35106   
     axis 180 -30 -90   XYZ
    dof rx
    limits (-10.0 170.0)
  end
  begin
     id 20
     name lwrist
     direction 1 -4.48957e-011 4.76535e-027   
     length 1.67553   
     axis -3.27501e-015 90 90   XYZ
    dof ry
    limits (-180.0 0.0)
 end
  begin
     id 21 
     name lhand
     direction 1 -4.49008e-011 9.52727e-027   
     length 0.574153   
     axis -6.08097e-015 90 90   XYZ
    dof rx rz
    limits (-90.0 90.0)
           (-45.0 45.0)
  end
  begin
     id 22 
     name lfingers
     direction 1 -4.48996e-011 1.90562e-026   
     length 0.462897   
     axis -1.21618e-014 90 90   XYZ
    dof rx
    limits (0.0 90.0)
  end
  begin
     id 23
     name lthumb
     direction 0.707107 -6.34908e-011 0.707107   
     length 0.66463   
     axis -90 45 -1.62303e-014   XYZ
    dof rx rz
    limits (-45.0 45.0)
           (-45.0 45.0)
  end
  begin
     id 24 
     name rclavicle
     direction -0.950439 0.29623 -0.0944132   
     length 3.45861  
     axis 0 0 0   XYZ 
    dof ry rz
    limits (-10.0 20.0)
           (-20.0 0.0)
  end
  begin
     id 25 
     name rhumerus
     direction -1 -4.48986e-011 1.25473e-027  
     length 5.33104   
     axis 180 30 90   XYZ
    dof rx ry rz
    limits (-90.0 60.0)
           (-90.0 90.0)
           (-90.0 90.0)
  end
  begin
     id 26 
     name rradius
     direction -1 -4.4894e-011 1.66273e-027   
     length 3.39883   
     axis 180 30 90   XYZ
    dof rx
    limits (-10.0 170.0)
  end
  begin
     id 27 
     name rwrist
     direction -1 -4.48946e-011 4.76572e-027   
     length 1.69941   
     axis -3.27501e-015 -90 -90   XYZ
    dof ry
    limits (-180.0 0.0)
  end
  begin
     id 28
     name rhand
     direction -1 -4.49028e-011 9.52595e-027   
     length 0.913886   
     axis -6.08097e-015 -90 -90   XYZ
    dof rx rz
    limits (-90.0 90.0)
           (-45.0 45.0)
  end
  begin
     id 29
     name rfingers
     direction -1 -4.48945e-011 1.9063e-026   
     length 0.736798   
     axis -1.21618e-014 -90 -90   XYZ
    dof rx
    limits (0.0 90.0)
  end
  begin
     id 30
     name rthumb
     direction -0.707107 -6.34966e-011 0.707107   
     length 1.0579   
     axis -90 -45 1.62303e-014   XYZ
    dof rx rz
    limits (-45.0 45.0)
           (-45.0 45.0)
  end
:hierarchy
  begin
    root lhipjoint rhipjoint lowerback
    lhipjoint lfemur
    lfemur ltibia
    ltibia lfoot
    lfoot ltoes
    rhipjoint rfemur
    rfemur rtibia
    rtibia rfoot
    rfoot rtoes
    lowerback upperback
    upperback thorax
    thorax lowerneck lclavicle rclavicle
    lowerneck upperneck
    upperneck head
    lclavicle lhumerus
    lhumerus lradius
    lradius lwrist
    lwrist lhand lthumb
    lhand lfingers
    rclavicle rhumerus
    rhumerus rradius
    rradius rwrist
    rwrist rhand rthumb
    rhand rfingers
  end

#!OML:ASF F:\VICON\USERDATA\INSTALL\rory3\rory3.ASF
:FULLY-SPECIFIED
:DEGREES
964
root -16.3198 16.6924 20.66 -376.059 41.4279 -365.305
lowerback 19.8023 6.98888 10.3081
upperback 0.057294 11.7973 1.43013
thorax -9.17113 5.21322 -7.18852
lowerneck -9.69517 22.1978 3.87571
upperneck -5.19543 29.5014 -13.1204
head 2.56922 14.5338 -2.69164
rclavicle -4.16951e-014 -3.27995e-015
rhumerus 87.5089 -31.7535 -52.4004
rradius 32.8871
rwrist -34.7384
rhand -19.0032 367.042
rfingers 7.12502
rthumb 7.30209 -742.812
lclavicle -4.16951e-014 -3.27995e-015
lhumerus 85.657 3.63099 74.7946
lradius 41.5843
lwrist 83.72
lhand -8.9097 25.8267
lfingers 7.12502
lthumb 17.0334 55.1
rfemur 1.2567 -19.6205 18.1347
rtibia 47.0571
rfoot -24.8675 -10.3184
rtoes -19.9987
lfemur -22.9172 -6.69304 -18.1955
ltibia 79.3645
lfoot -4.13198 -13.2192
ltoes -14.6576
965
root -16.255 16.6063 21.2755 -375.781 42.1034 -365.191
lowerback 19.3572 7.07415 10.3675
upperback 0.107993 11.8644 1.44293
thorax -8.84732 5.27628 -7.1371
lowerneck -10.158 22.0095 3.85105
upperneck -5.59073 29.1844 -12.8193
head 2.42318 14.3859 -2.62052
rclavicle -1.6642e-014 1.80894e-014
rhumerus 87.7767 -29.8358 -53.6508
rradius 33.1579
rwrist -33.6645
rhand -18.6924 367.186
rfingers 7.12502
rthumb 7.60202 -742.658
lclavicle -1.6642e-014 1.80894e-014
lhumerus 85.0831 5.07425 74.9165
lradius 41.4957
lwrist 83.7156
lhand -8.75789 26.625
lfingers 7.12502
lthumb 17.1795 55.8855
rfemur 3.26126 -21.6309 18.0351
rtibia 47.2052
rfoot -26.6326 -10.8493
rtoes -24.5503
lfemur -25.2202 -4.20941 -20.5177
ltibia 76.5393
lfoot -5.62754 -15.9753
ltoes -14.8797
966
root -16.1817 16.5697 21.9062 -375.718 42.8924 -365.534
lowerback 18.8262 7.13737 10.4996
upperback 0.00465417 11.9258 1.50514
thorax -8.64747 5.31807 -7.07061
lowerneck -10.3954 21.9637 4.68096
upperneck -5.61575 29.031 -12.8757
head 2.58298 14.2861 -2.70457
rclavicle 4.23039e-015 1.12313e-014
rhumerus 87.4579 -28.2533 -53.9606
rradius 33.4116
rwrist -33.291
rhand -18.3332 367.765
rfingers 7.12502
rthumb 7.94874 -742.066
lclavicle 4.23039e-015 1.12313e-014
lhumerus 84.4532 6.34506 75.2043
lradius 41.374
lwrist 83.9263
lhand -9.45837 27.9789
lfingers 7.12502
lthumb 16.5052 57.2969
rfemur 5.8259 -23.2529 18.5123
rtibia 46.1721
rfoot -27.6466 -10.8997
rtoes -25.3496
lfemur -26.894 -1.86422 -22.7773
ltibia 72.5585
lfoot -6.36432 -18.9645
ltoes -14.6907
967
root -16.0912 16.586 22.5459 -375.77 43.7983 -366.073
lowerback 18.272 7.1133 10.7634
upperback -0.213768 11.9051 1.56143
thorax -8.55049 5.30114 -7.07112
lowerneck -10.4619 21.7432 5.1483
upperneck -5.91167 28.6443 -12.6968
head 2.50161 14.099 -2.76112
rclavicle -1.75639e-013 -6.85807e-015
rhumerus 87.0042 -26.8855 -53.8913
rradius 33.4613
rwrist -32.6192
rhand -17.6193 367.778
rfingers 7.12502
rthumb 8.63773 -742.025
lclavicle -1.75639e-013 -6.85807e-015
lhumerus 83.8852 7.55303 76.0109
lradius 41.0179
lwrist 84.1737
lhand -9.18282 30.0779
lfingers 7.12502
lthumb 16.7705 59.3736
rfemur 8.76852 -24.3349 19.3472
rtibia 44.2785
rfoot -27.841 -10.8271
rtoes -25.4675
lfemur -27.9544 0.435058 -25.0548
ltibia 67.7056
lfoot -6.81762 -20.451
ltoes -15.8136
968
root -15.9865 16.6409 23.1842 -375.719 44.4429 -366.629
lowerback 17.5833 7.13578 10.9224
upperback -0.429679 11.9183 1.76247
thorax -8.42222 5.31164 -6.84758
lowerneck -10.7834 21.6601 5.44992
upperneck -5.74482 28.506 -12.7117
head 2.65236 14.0064 -2.76483
rclavicle -5.54609e-014 -2.82274e-014
rhumerus 86.719 -25.6132 -53.0803
rradius 33.2414
rwrist -32.429
rhand -17.4572 367.397
rfingers 7.12502
rthumb 8.79414 -742.4
lclavicle -5.54609e-014 -2.82274e-014
lhumerus 82.938 9.23704 75.8586
lradius 40.9168
lwrist 84.4296
lhand -8.69623 30.8937
lfingers 7.12502
lthumb 17.2388 60.1491
rfemur 11.4809 -24.6091 20.5591
rtibia 42.1561
rfoot -26.8098 -10.5134
rtoes -26.1586
lfemur -28.402 3.05575 -27.2852
ltibia 62.2041
lfoot -5.5361 -22.0719
ltoes -13.882
969
root -15.8632 16.7204 23.8376 -376.147 44.4448 -367.903
lowerback 16.8923 7.38599 11.819
upperback -0.869082 12.3814 1.8189
thorax -8.28125 5.49553 -7.24519
lowerneck -10.8274 21.3814 6.86322
upperneck -5.42464 28.0169 -13.6708
head 2.82008 13.6962 -2.88026
rclavicle -5.41502e-014 -3.54831e-014
rhumerus 85.0928 -25.1242 -51.0935
rradius 33.4584
rwrist -33.7378
rhand -17.3034 366.798
rfingers 7.12502
rthumb 8.9426 -742.993
lclavicle -5.41502e-014 -3.54831e-014
lhumerus 81.1038 9.89319 73.6392
lradius 41.5153
lwrist 83.9081
lhand -10.6182 28.1086
lfingers 7.12502
lthumb 15.3882 57.5159
rfemur 13.7442 -23.691 22.7732
rtibia 40.3871
rfoot -25.2328 -9.05617
rtoes -23.5551
lfemur -28.3321 6.08358 -28.6201
ltibia 56.6251
lfoot -4.11753 -23.2689
ltoes -17.0007
970
root -15.7249 16.8302 24.4979 -375.977 44.2237 -368.362
lowerback 16.1327 7.76577 12.0987
upperback -1.1974 12.8524 1.75233
thorax -8.06029 5.72079 -7.42114
lowerneck -11.2278 21.0585 7.61738
upperneck -5.28779 27.4906 -13.8623
head 3.00235 13.3966 -3.01029
rclavicle -3.22047e-014 -1.80397e-014
rhumerus 82.9976 -24.9223 -48.387
rradius 34.4244
rwrist -36.5121
rhand -17.1537 366.02
rfingers 7.12502
rthumb 9.08703 -743.765
lclavicle -3.22047e-014 -1.80397e-014
lhumerus 80.195 10.6218 74.9073
lradius 41.909
lwrist 83.6395
lhand -10.2119 29.933
lfingers 7.12502
lthumb 15.7796 59.3098
rfemur 15.2097 -21.8923 24.3375
rtibia 39.751
rfoot -20.3165 -7.47378
rtoes -29.1748
lfemur -27.8536 8.87133 -30.3642
ltibia 51.0555
lfoot 0.178848 -22.321
ltoes -14.6456
971
root -15.5783 16.9338 25.1503 -375.815 44.0753 -368.607
lowerback 15.4867 7.96673 12.2987
upperback -1.38095 13.0798 1.77148
thorax -7.82187 5.84108 -7.4301
lowerneck -11.6303 20.7666 6.92478
upperneck -5.63154 27.0798 -13.0783
head 2.71186 13.223 -2.80238
rclavicle 9.32207e-014 1.23619e-014
rhumerus 81.0598 -24.5085 -45.6151
rradius 35.8307
rwrist -39.8696
rhand -17.0437 364.986
rfingers 7.12502
rthumb 9.19314 -744.794
lclavicle 9.32207e-014 1.23619e-014
lhumerus 79.0769 12.0365 75.5384
lradius 42.7342
lwrist 83.7048
lhand -11.029 30.3556
lfingers 7.12502
lthumb 14.9926 59.7928
rfemur 16.5148 -21.1703 24.6006
rtibia 40.2844
rfoot -15.1941 -3.14603
rtoes -26.8268
lfemur -26.8993 10.3024 -31.7906
ltibia 46.2408
lfoot 3.83852 -20.9461
ltoes -16.1918
972
root -15.4357 17.0081 25.8032 -375.967 44.001 -368.901
lowerback 14.9607 7.92476 12.3631
upperback -1.31594 12.9618 1.89588
thorax -7.49418 5.8198 -7.21156
lowerneck -12.1551 20.6665 6.46937
upperneck -5.82522 26.9382 -12.7181
head 2.60446 13.1589 -2.65742
rclavicle -3.8895e-014 1.19395e-014
rhumerus 79.7661 -23.9839 -43.518
rradius 37.307
rwrist -43.1636
rhand -16.6897 364.368
rfingers 7.12502
rthumb 9.53478 -745.396
lclavicle -3.8895e-014 1.19395e-014
lhumerus 78.325 14.2788 76.1692
lradius 43.6111
lwrist 84.1171
lhand -11.6926 31.0576
lfingers 7.12502
lthumb 14.3532 60.5414
rfemur 17.2296 -21.3232 23.5392
rtibia 42.2894
rfoot -5.97758 3.40136
rtoes -20.7577
lfemur -25.5012 10.7855 -32.7272
ltibia 42.1914
lfoot 8.13451 -19.4587
ltoes -13.7336
973
root -15.3056 17.0486 26.4569 -376.476 43.942 -369.052
lowerback 15.1737 7.97603 12.2678
upperback -1.27741 13.0485 1.96594
thorax -7.59144 5.85912 -7.1374
lowerneck -12.5487 20.5714 6.7533
upperneck -5.64005 26.7471 -12.4557
head 2.69677 13.0428 -2.59552
rclavicle -8.93032e-014 7.20594e-016
rhumerus 77.5799 -23.9089 -40.7279
rradius 39.1073
rwrist -46.6401
rhand -16.146 363.809
rfingers 7.12502
rthumb 10.0593 -745.93
lclavicle -8.93032e-014 7.20594e-016
lhumerus 77.7457 16.0532 76.7336
lradius 44.5766
lwrist 83.963
lhand -12.9592 32.013
lfingers 7.12502
lthumb 13.1325 61.5795
rfemur 17.2706 -21.1497 22.1743
rtibia 45.3797
rfoot 2.35149 8.259
rtoes -19.1848
lfemur -23.5342 10.4865 -33.1238
ltibia 39.4348
lfoot 10.089 -16.1719
ltoes -14.0508
974
root -15.1802 17.0603 27.102 -377.192 43.7121 -369.561
lowerback 15.5387 8.10273 12.3678
upperback -1.40902 13.3014 1.9307
thorax -7.86532 5.94411 -7.33987
lowerneck -12.8252 20.4231 7.33935
upperneck -5.48881 26.418 -11.8306
head 2.73168 12.8667 -2.50597
rclavicle -3.66137e-014 -8.24956e-015
rhumerus 74.5274 -24.1341 -37.3688
rradius 41.2452
rwrist -50.213
rhand -15.934 363.071
rfingers 7.12502
rthumb 10.2638 -746.659
lclavicle -3.66137e-014 -8.24956e-015
lhumerus 77.6779 17.4438 76.8505
lradius 44.9957
lwrist 82.8494
lhand -15.4875 32.439
lfingers 7.12502
lthumb 10.6945 62.1468
rfemur 16.6872 -21.1142 21.027
rtibia 49.497
rfoot 6.22227 12.9883
rtoes -14.0607
lfemur -21.8776 9.35425 -32.7889
ltibia 38.2804
lfoot 12.1815 -11.7737
ltoes -1.21358
